<svg width="202" height="203" xmlns="http://www.w3.org/2000/svg" xmlns:xlink="http://www.w3.org/1999/xlink" xml:space="preserve" overflow="hidden"><defs><clipPath id="clip0"><rect x="117" y="444" width="202" height="203"/></clipPath></defs><g clip-path="url(#clip0)" transform="translate(-117 -444)"><path d="M159.917 29.4583 172.542 29.4583 172.542 172.542 29.4583 172.542 29.4583 159.917 159.917 159.917Z" fill="#303030" transform="matrix(1 0 0 1.00495 117 444)"/><path d="M124.146 73.6458 147.292 73.6458 147.292 147.292 124.146 147.292Z" fill="#303030" transform="matrix(1 0 0 1.00495 117 444)"/><path d="M92.5833 29.4583 115.729 29.4583 115.729 147.292 92.5833 147.292Z" fill="#303030" transform="matrix(1 0 0 1.00495 117 444)"/><path d="M61.0208 73.6458 84.1667 73.6458 84.1667 147.292 61.0208 147.292Z" fill="#303030" transform="matrix(1 0 0 1.00495 117 444)"/><path d="M29.4583 109.417 52.6042 109.417 52.6042 147.292 29.4583 147.292Z" fill="#303030" transform="matrix(1 0 0 1.00495 117 444)"/></g></svg>